# xmcd CD database file
# Copyright (C) 1993-1998 Ti Kan
# 
# Track frame offsets:
#     183
#     13903
#     27053
#     39385
#     54063
#     67345
#     80188
#     93600
#     108203
#     118320
# 
# Disc length: 1736 seconds
# 
# Revision: 1
# Processed by: cddbd v1.4b41PL1 Copyright (c) Steve Scherf et al.
# Submitted via: DiscPlay 4.0.4
# 
DISCID=8406c60a
DTITLE=Muddy Waters - I'm Ready
DYEAR=1900
DGENRE=
TTITLE0=I'm Ready
TTITLE1=Manish Boy
TTITLE2=Trouble, No More
TTITLE3=Still A Fool
TTITLE4=Don't Go No Farther
TTITLE5=Louisiana Blues
TTITLE6=She Moves Me
TTITLE7=Baby, Please Don't Go
TTITLE8=Tiger In Your Tank
TTITLE9=Walkin' Through The Park
EXTD=
EXTT0=
EXTT1=
EXTT2=
EXTT3=
EXTT4=
EXTT5=
EXTT6=
EXTT7=
EXTT8=
EXTT9=
PLAYORDER=
